<svg width="144" height="98" viewBox="0 0 144 98" fill="none" xmlns="http://www.w3.org/2000/svg">
<g filter="url(#filter0_d_341_69)">
<mask id="path-1-outside-1_341_69" maskUnits="userSpaceOnUse" x="4" y="0" width="136" height="90" fill="black">
<rect fill="white" x="4" width="136" height="90"/>
<path d="M36.206 88.28C26.5633 88.28 19.0113 86.4027 13.55 82.648C8.174 78.808 5.486 73.2187 5.486 65.88V65.624H14.574V66.392C14.574 71.6827 16.238 75.3947 19.566 77.528C22.9793 79.6613 28.5687 80.728 36.334 80.728C43.4167 80.728 48.366 79.8747 51.182 78.168C53.998 76.376 55.406 73.688 55.406 70.104C55.406 66.776 54.2967 64.4293 52.078 63.064C49.9447 61.6133 46.2327 60.4613 40.942 59.608L24.046 57.176C18.2433 56.408 13.6353 54.7867 10.222 52.312C6.894 49.8373 5.23 45.9547 5.23 40.664C5.23 36.9093 6.33933 33.7093 8.558 31.064C10.862 28.3333 14.1047 26.2427 18.286 24.792C22.4673 23.256 27.4593 22.488 33.262 22.488C39.3207 22.488 44.5687 23.3413 49.006 25.048C53.5287 26.6693 57.0273 29.144 59.502 32.472C61.9767 35.8 63.214 39.9813 63.214 45.016V45.272H54.126V44.632C54.126 41.3893 53.486 38.7013 52.206 36.568C50.926 34.4347 48.75 32.8133 45.678 31.704C42.606 30.5947 38.382 30.04 33.006 30.04C26.35 30.04 21.5287 30.8933 18.542 32.6C15.6407 34.3067 14.19 37.0373 14.19 40.792C14.19 44.0347 15.1713 46.3813 17.134 47.832C19.182 49.1973 22.8087 50.3067 28.014 51.16L43.502 53.336C50.2433 54.2747 55.406 56.024 58.99 58.584C62.574 61.144 64.366 64.984 64.366 70.104C64.366 74.0293 63.1287 77.3573 60.654 80.088C58.2647 82.8187 54.9367 84.8667 50.67 86.232C46.4887 87.5973 41.6673 88.28 36.206 88.28ZM138.897 87H129.809V51.416C129.809 44.1627 128.102 38.9147 124.689 35.672C121.276 32.4293 115.985 30.808 108.817 30.808C103.185 30.808 98.6197 31.9173 95.121 34.136C91.7077 36.3547 89.233 39.4693 87.697 43.48C86.161 47.4053 85.393 52.0133 85.393 57.304L82.833 57.432L83.729 43.096H85.905C86.673 39.5973 88.081 36.2693 90.129 33.112C92.2623 29.9547 95.1637 27.3947 98.833 25.432C102.502 23.4693 107.025 22.488 112.401 22.488C118.289 22.488 123.196 23.7253 127.121 26.2C131.046 28.5893 133.99 31.8747 135.953 36.056C137.916 40.2373 138.897 44.9733 138.897 50.264V87ZM85.393 87H76.305V1.24H85.393V87Z"/>
</mask>
<path d="M36.206 88.28C26.5633 88.28 19.0113 86.4027 13.55 82.648C8.174 78.808 5.486 73.2187 5.486 65.88V65.624H14.574V66.392C14.574 71.6827 16.238 75.3947 19.566 77.528C22.9793 79.6613 28.5687 80.728 36.334 80.728C43.4167 80.728 48.366 79.8747 51.182 78.168C53.998 76.376 55.406 73.688 55.406 70.104C55.406 66.776 54.2967 64.4293 52.078 63.064C49.9447 61.6133 46.2327 60.4613 40.942 59.608L24.046 57.176C18.2433 56.408 13.6353 54.7867 10.222 52.312C6.894 49.8373 5.23 45.9547 5.23 40.664C5.23 36.9093 6.33933 33.7093 8.558 31.064C10.862 28.3333 14.1047 26.2427 18.286 24.792C22.4673 23.256 27.4593 22.488 33.262 22.488C39.3207 22.488 44.5687 23.3413 49.006 25.048C53.5287 26.6693 57.0273 29.144 59.502 32.472C61.9767 35.8 63.214 39.9813 63.214 45.016V45.272H54.126V44.632C54.126 41.3893 53.486 38.7013 52.206 36.568C50.926 34.4347 48.75 32.8133 45.678 31.704C42.606 30.5947 38.382 30.04 33.006 30.04C26.35 30.04 21.5287 30.8933 18.542 32.6C15.6407 34.3067 14.19 37.0373 14.19 40.792C14.19 44.0347 15.1713 46.3813 17.134 47.832C19.182 49.1973 22.8087 50.3067 28.014 51.16L43.502 53.336C50.2433 54.2747 55.406 56.024 58.99 58.584C62.574 61.144 64.366 64.984 64.366 70.104C64.366 74.0293 63.1287 77.3573 60.654 80.088C58.2647 82.8187 54.9367 84.8667 50.67 86.232C46.4887 87.5973 41.6673 88.28 36.206 88.28ZM138.897 87H129.809V51.416C129.809 44.1627 128.102 38.9147 124.689 35.672C121.276 32.4293 115.985 30.808 108.817 30.808C103.185 30.808 98.6197 31.9173 95.121 34.136C91.7077 36.3547 89.233 39.4693 87.697 43.48C86.161 47.4053 85.393 52.0133 85.393 57.304L82.833 57.432L83.729 43.096H85.905C86.673 39.5973 88.081 36.2693 90.129 33.112C92.2623 29.9547 95.1637 27.3947 98.833 25.432C102.502 23.4693 107.025 22.488 112.401 22.488C118.289 22.488 123.196 23.7253 127.121 26.2C131.046 28.5893 133.99 31.8747 135.953 36.056C137.916 40.2373 138.897 44.9733 138.897 50.264V87ZM85.393 87H76.305V1.24H85.393V87Z" fill="black"/>
<path d="M13.55 82.648L12.9688 83.4617L12.9761 83.467L12.9835 83.472L13.55 82.648ZM5.486 65.624V64.624H4.486V65.624H5.486ZM14.574 65.624H15.574V64.624H14.574V65.624ZM19.566 77.528L19.0263 78.3699L19.036 78.376L19.566 77.528ZM51.182 78.168L51.7003 79.0232L51.7097 79.0175L51.7189 79.0117L51.182 78.168ZM52.078 63.064L51.5157 63.8909L51.5345 63.9037L51.5539 63.9157L52.078 63.064ZM40.942 59.608L41.1012 58.6208L41.0929 58.6194L41.0845 58.6182L40.942 59.608ZM24.046 57.176L24.1885 56.1861L24.1772 56.1846L24.046 57.176ZM10.222 52.312L9.62525 53.1145L9.63503 53.1216L10.222 52.312ZM8.558 31.064L7.79371 30.4191L7.79181 30.4214L8.558 31.064ZM18.286 24.792L18.6138 25.7368L18.6223 25.7338L18.6308 25.7307L18.286 24.792ZM49.006 25.048L48.647 25.9813L48.6577 25.9855L48.6685 25.9893L49.006 25.048ZM63.214 45.272V46.272H64.214V45.272H63.214ZM54.126 45.272H53.126V46.272H54.126V45.272ZM52.206 36.568L51.3485 37.0825L51.3485 37.0825L52.206 36.568ZM45.678 31.704L45.3384 32.6446L45.3384 32.6446L45.678 31.704ZM18.542 32.6L18.0458 31.7317L18.035 31.7381L18.542 32.6ZM17.134 47.832L16.5396 48.6362L16.5591 48.6506L16.5793 48.664L17.134 47.832ZM28.014 51.16L27.8522 52.1468L27.8635 52.1487L27.8749 52.1503L28.014 51.16ZM43.502 53.336L43.3629 54.3263L43.3641 54.3264L43.502 53.336ZM58.99 58.584L59.5712 57.7703L59.5712 57.7703L58.99 58.584ZM60.654 80.088L59.913 79.4165L59.9072 79.4229L59.9014 79.4295L60.654 80.088ZM50.67 86.232L50.3652 85.2796L50.3596 85.2814L50.67 86.232ZM36.206 88.28V87.28C26.678 87.28 19.3512 85.4228 14.1165 81.824L13.55 82.648L12.9835 83.472C18.6715 87.3826 26.4487 89.28 36.206 89.28V88.28ZM13.55 82.648L14.1312 81.8343C9.05012 78.2049 6.486 72.9373 6.486 65.88H5.486H4.486C4.486 73.5001 7.29788 79.4111 12.9688 83.4617L13.55 82.648ZM5.486 65.88H6.486V65.624H5.486H4.486V65.88H5.486ZM5.486 65.624V66.624H14.574V65.624V64.624H5.486V65.624ZM14.574 65.624H13.574V66.392H14.574H15.574V65.624H14.574ZM14.574 66.392H13.574C13.574 71.8949 15.3179 75.9927 19.0263 78.3699L19.566 77.528L20.1057 76.6861C17.1581 74.7967 15.574 71.4705 15.574 66.392H14.574ZM19.566 77.528L19.036 78.376C22.698 80.6647 28.5268 81.728 36.334 81.728V80.728V79.728C28.6105 79.728 23.2607 78.6579 20.096 76.68L19.566 77.528ZM36.334 80.728V81.728C43.4333 81.728 48.6297 80.8842 51.7003 79.0232L51.182 78.168L50.6637 77.3128C48.1023 78.8652 43.4001 79.728 36.334 79.728V80.728ZM51.182 78.168L51.7189 79.0117C54.8479 77.0204 56.406 73.9997 56.406 70.104H55.406H54.406C54.406 73.3763 53.1481 75.7316 50.6451 77.3243L51.182 78.168ZM55.406 70.104H56.406C56.406 66.5388 55.1995 63.8107 52.6021 62.2123L52.078 63.064L51.5539 63.9157C53.3938 65.0479 54.406 67.0132 54.406 70.104H55.406ZM52.078 63.064L52.6403 62.2371C50.3137 60.655 46.4135 59.4776 41.1012 58.6208L40.942 59.608L40.7828 60.5952C46.0518 61.4451 49.5756 62.5717 51.5157 63.8909L52.078 63.064ZM40.942 59.608L41.0845 58.6182L24.1885 56.1862L24.046 57.176L23.9035 58.1658L40.7995 60.5978L40.942 59.608ZM24.046 57.176L24.1772 56.1846C18.4786 55.4304 14.0458 53.8491 10.809 51.5024L10.222 52.312L9.63503 53.1216C13.2249 55.7243 18.0081 57.3856 23.9148 58.1674L24.046 57.176ZM10.222 52.312L10.8187 51.5095C7.81282 49.2744 6.23 45.7346 6.23 40.664H5.23H4.23C4.23 46.1747 5.97518 50.4003 9.6253 53.1145L10.222 52.312ZM5.23 40.664H6.23C6.23 37.1223 7.27017 34.1556 9.32419 31.7066L8.558 31.064L7.79181 30.4214C5.4085 33.263 4.23 36.6964 4.23 40.664H5.23ZM8.558 31.064L9.32229 31.7089C11.4857 29.1449 14.562 27.1425 18.6138 25.7368L18.286 24.792L17.9582 23.8472C13.6474 25.3428 10.2383 27.5218 7.79371 30.4191L8.558 31.064ZM18.286 24.792L18.6308 25.7307C22.674 24.2454 27.5433 23.488 33.262 23.488V22.488V21.488C27.3754 21.488 22.2607 22.2666 17.9412 23.8533L18.286 24.792ZM33.262 22.488V23.488C39.2301 23.488 44.3509 24.329 48.647 25.9813L49.006 25.048L49.365 24.1147C44.7865 22.3537 39.4112 21.488 33.262 21.488V22.488ZM49.006 25.048L48.6685 25.9893C53.0358 27.555 56.3603 29.9228 58.6995 33.0687L59.502 32.472L60.3045 31.8753C57.6944 28.3652 54.0215 25.7837 49.3435 24.1067L49.006 25.048ZM59.502 32.472L58.6995 33.0687C61.0204 36.1899 62.214 40.1492 62.214 45.016H63.214H64.214C64.214 39.8135 62.9329 35.4101 60.3045 31.8753L59.502 32.472ZM63.214 45.016H62.214V45.272H63.214H64.214V45.016H63.214ZM63.214 45.272V44.272H54.126V45.272V46.272H63.214V45.272ZM54.126 45.272H55.126V44.632H54.126H53.126V45.272H54.126ZM54.126 44.632H55.126C55.126 41.2618 54.461 38.3827 53.0635 36.0535L52.206 36.568L51.3485 37.0825C52.511 39.02 53.126 41.5168 53.126 44.632H54.126ZM52.206 36.568L53.0635 36.0535C51.6324 33.6684 49.2378 31.9263 46.0176 30.7634L45.678 31.704L45.3384 32.6446C48.2622 33.7004 50.2196 35.201 51.3485 37.0825L52.206 36.568ZM45.678 31.704L46.0176 30.7634C42.789 29.5975 38.433 29.04 33.006 29.04V30.04V31.04C38.331 31.04 42.423 31.5918 45.3384 32.6446L45.678 31.704ZM33.006 30.04V29.04C26.3108 29.04 21.2685 29.8902 18.0459 31.7318L18.542 32.6L19.0381 33.4682C21.7888 31.8964 26.3892 31.04 33.006 31.04V30.04ZM18.542 32.6L18.035 31.7381C14.788 33.648 13.19 36.7322 13.19 40.792H14.19H15.19C15.19 37.3425 16.4933 34.9653 19.049 33.4619L18.542 32.6ZM14.19 40.792H13.19C13.19 44.2384 14.2426 46.9384 16.5396 48.6362L17.134 47.832L17.7284 47.0278C16.1001 45.8243 15.19 43.8309 15.19 40.792H14.19ZM17.134 47.832L16.5793 48.664C18.8185 50.1569 22.631 51.2909 27.8522 52.1468L28.014 51.16L28.1758 50.1732C22.9864 49.3224 19.5455 48.2378 17.6887 46.9999L17.134 47.832ZM28.014 51.16L27.8749 52.1503L43.3629 54.3263L43.502 53.336L43.6411 52.3457L28.1531 50.1697L28.014 51.16ZM43.502 53.336L43.3641 54.3264C50.0247 55.2539 55.0086 56.969 58.4088 59.3977L58.99 58.584L59.5712 57.7703C55.8034 55.079 50.462 53.2955 43.6399 52.3456L43.502 53.336ZM58.99 58.584L58.4088 59.3977C61.6846 61.7376 63.366 65.2468 63.366 70.104H64.366H65.366C65.366 64.7212 63.4634 60.5504 59.5712 57.7703L58.99 58.584ZM64.366 70.104H63.366C63.366 73.7988 62.2095 76.8824 59.913 79.4165L60.654 80.088L61.395 80.7595C64.0478 77.8322 65.366 74.2599 65.366 70.104H64.366ZM60.654 80.088L59.9014 79.4295C57.657 81.9945 54.4991 83.9567 50.3652 85.2796L50.67 86.232L50.9748 87.1844C55.3742 85.7766 58.8723 83.6428 61.4066 80.7465L60.654 80.088ZM50.67 86.232L50.3596 85.2814C46.2993 86.6072 41.5863 87.28 36.206 87.28V88.28V89.28C41.7484 89.28 46.678 88.5875 50.9804 87.1826L50.67 86.232ZM138.897 87V88H139.897V87H138.897ZM129.809 87H128.809V88H129.809V87ZM124.689 35.672L125.378 34.947L125.378 34.947L124.689 35.672ZM95.121 34.136L94.5854 33.2914L94.576 33.2976L95.121 34.136ZM87.697 43.48L88.6283 43.8444L88.6309 43.8376L87.697 43.48ZM85.393 57.304L85.4429 58.3028L86.393 58.2552V57.304H85.393ZM82.833 57.432L81.8349 57.3696L81.7651 58.4866L82.8829 58.4308L82.833 57.432ZM83.729 43.096V42.096H82.7895L82.7309 43.0336L83.729 43.096ZM85.905 43.096V44.096H86.7093L86.8817 43.3104L85.905 43.096ZM90.129 33.112L89.3004 32.5521L89.2952 32.5599L89.29 32.5678L90.129 33.112ZM98.833 25.432L98.3614 24.5502L98.3613 24.5502L98.833 25.432ZM127.121 26.2L126.588 27.0459L126.594 27.0501L126.601 27.0542L127.121 26.2ZM135.953 36.056L136.858 35.6311L136.858 35.6311L135.953 36.056ZM85.393 87V88H86.393V87H85.393ZM76.305 87H75.305V88H76.305V87ZM76.305 1.24V0.239998H75.305V1.24H76.305ZM85.393 1.24H86.393V0.239998H85.393V1.24ZM138.897 87V86H129.809V87V88H138.897V87ZM129.809 87H130.809V51.416H129.809H128.809V87H129.809ZM129.809 51.416H130.809C130.809 44.0346 129.075 38.4597 125.378 34.947L124.689 35.672L124 36.397C127.129 39.3696 128.809 44.2908 128.809 51.416H129.809ZM124.689 35.672L125.378 34.947C121.702 31.4547 116.111 29.808 108.817 29.808V30.808V31.808C115.859 31.808 120.85 33.404 124 36.397L124.689 35.672ZM108.817 30.808V29.808C103.061 29.808 98.2922 30.9409 94.5855 33.2915L95.121 34.136L95.6565 34.9805C98.9472 32.8938 103.309 31.808 108.817 31.808V30.808ZM95.121 34.136L94.576 33.2976C90.9754 35.6379 88.3703 38.9259 86.7631 43.1224L87.697 43.48L88.6309 43.8376C90.0957 40.0128 92.4399 37.0714 95.666 34.9744L95.121 34.136ZM87.697 43.48L86.7658 43.1156C85.1744 47.1825 84.393 51.9192 84.393 57.304H85.393H86.393C86.393 52.1074 87.1476 47.6282 88.6282 43.8444L87.697 43.48ZM85.393 57.304L85.3431 56.3052L82.7831 56.4332L82.833 57.432L82.8829 58.4308L85.4429 58.3028L85.393 57.304ZM82.833 57.432L83.8311 57.4944L84.7271 43.1584L83.729 43.096L82.7309 43.0336L81.8349 57.3696L82.833 57.432ZM83.729 43.096V44.096H85.905V43.096V42.096H83.729V43.096ZM85.905 43.096L86.8817 43.3104C87.6227 39.9349 88.982 36.7179 90.968 33.6562L90.129 33.112L89.29 32.5678C87.18 35.8207 85.7233 39.2598 84.9283 42.8816L85.905 43.096ZM90.129 33.112L90.9576 33.6719C92.9917 30.6614 95.7652 28.207 99.3047 26.3138L98.833 25.432L98.3613 24.5502C94.5621 26.5824 91.533 29.2479 89.3004 32.5521L90.129 33.112ZM98.833 25.432L99.3047 26.3138C102.793 24.4481 107.143 23.488 112.401 23.488V22.488V21.488C106.907 21.488 102.212 22.4906 98.3614 24.5502L98.833 25.432ZM112.401 22.488V23.488C118.151 23.488 122.86 24.6957 126.588 27.0459L127.121 26.2L127.654 25.3541C123.532 22.7549 118.427 21.488 112.401 21.488V22.488ZM127.121 26.2L126.601 27.0542C130.358 29.3408 133.168 32.4764 135.048 36.4809L135.953 36.056L136.858 35.6311C134.813 31.2729 131.735 27.8378 127.641 25.3458L127.121 26.2ZM135.953 36.056L135.048 36.4809C136.94 40.5112 137.897 45.0989 137.897 50.264H138.897H139.897C139.897 44.8478 138.892 39.9634 136.858 35.6311L135.953 36.056ZM138.897 50.264H137.897V87H138.897H139.897V50.264H138.897ZM85.393 87V86H76.305V87V88H85.393V87ZM76.305 87H77.305V1.24H76.305H75.305V87H76.305ZM76.305 1.24V2.24H85.393V1.24V0.239998H76.305V1.24ZM85.393 1.24H84.393V87H85.393H86.393V1.24H85.393Z" fill="black" mask="url(#path-1-outside-1_341_69)"/>
</g>
<defs>
<filter id="filter0_d_341_69" x="0.22998" y="0.23999" width="143.667" height="97.04" filterUnits="userSpaceOnUse" color-interpolation-filters="sRGB">
<feFlood flood-opacity="0" result="BackgroundImageFix"/>
<feColorMatrix in="SourceAlpha" type="matrix" values="0 0 0 0 0 0 0 0 0 0 0 0 0 0 0 0 0 0 127 0" result="hardAlpha"/>
<feOffset dy="4"/>
<feGaussianBlur stdDeviation="2"/>
<feComposite in2="hardAlpha" operator="out"/>
<feColorMatrix type="matrix" values="0 0 0 0 0 0 0 0 0 0 0 0 0 0 0 0 0 0 0.25 0"/>
<feBlend mode="normal" in2="BackgroundImageFix" result="effect1_dropShadow_341_69"/>
<feBlend mode="normal" in="SourceGraphic" in2="effect1_dropShadow_341_69" result="shape"/>
</filter>
</defs>
</svg>
